<?xml version="1.0" encoding="UTF-8" standalone="no"?>
<!DOCTYPE svg PUBLIC "-//W3C//DTD SVG 1.1//EN"
 "http://www.w3.org/Graphics/SVG/1.1/DTD/svg11.dtd">
<!-- Generated by graphviz version 14.1.2 (0)
 -->
<!-- Title: G Pages: 1 -->
<svg width="692pt" height="1594pt"
 viewBox="0.00 0.00 692.00 1594.00" xmlns="http://www.w3.org/2000/svg" xmlns:xlink="http://www.w3.org/1999/xlink">
<g id="graph0" class="graph" transform="scale(1 1) rotate(0) translate(21.6 1572.18)">
<title>G</title>
<polygon fill="#ffffff" stroke="none" points="-21.6,21.6 -21.6,-1572.18 670.31,-1572.18 670.31,21.6 -21.6,21.6"/>
<!-- mount -->
<g id="node1" class="node">
<title>mount</title>
<path fill="#dbeafe" stroke="#64748b" stroke-width="1.2" d="M437.8,-672.46C437.8,-672.46 238.63,-672.46 238.63,-672.46 232.63,-672.46 226.63,-666.46 226.63,-660.46 226.63,-660.46 226.63,-625.3 226.63,-625.3 226.63,-619.3 232.63,-613.3 238.63,-613.3 238.63,-613.3 437.8,-613.3 437.8,-613.3 443.8,-613.3 449.8,-619.3 449.8,-625.3 449.8,-625.3 449.8,-660.46 449.8,-660.46 449.8,-666.46 443.8,-672.46 437.8,-672.46"/>
<text xml:space="preserve" text-anchor="middle" x="338.21" y="-647.18" font-family="DejaVu Sans" font-size="16.00" fill="#0f172a">App mount</text>
<text xml:space="preserve" text-anchor="middle" x="338.21" y="-627.68" font-family="DejaVu Sans" font-size="16.00" fill="#0f172a">loadUser() → fetchUser()</text>
</g>
<!-- me -->
<g id="node2" class="node">
<title>me</title>
<path fill="#cffafe" stroke="#64748b" stroke-width="1.2" d="M398.8,-549.8C398.8,-549.8 277.63,-549.8 277.63,-549.8 271.63,-549.8 265.63,-543.8 265.63,-537.8 265.63,-537.8 265.63,-502.64 265.63,-502.64 265.63,-496.64 271.63,-490.64 277.63,-490.64 277.63,-490.64 398.8,-490.64 398.8,-490.64 404.8,-490.64 410.8,-496.64 410.8,-502.64 410.8,-502.64 410.8,-537.8 410.8,-537.8 410.8,-543.8 404.8,-549.8 398.8,-549.8"/>
<text xml:space="preserve" text-anchor="middle" x="338.21" y="-524.52" font-family="DejaVu Sans" font-size="16.00" fill="#0f172a">GET /auth/me</text>
<text xml:space="preserve" text-anchor="middle" x="338.21" y="-505.02" font-family="DejaVu Sans" font-size="16.00" fill="#0f172a">get_me() route</text>
</g>
<!-- mount&#45;&gt;me -->
<g id="edge1" class="edge">
<title>mount&#45;&gt;me</title>
<path fill="none" stroke="#64748b" d="M338.21,-612.98C338.21,-596.68 338.21,-576.14 338.21,-558.63"/>
<polygon fill="#64748b" stroke="#64748b" points="340.66,-558.82 338.21,-551.82 335.76,-558.82 340.66,-558.82"/>
<text xml:space="preserve" text-anchor="middle" x="376.46" y="-577.85" font-family="DejaVu Sans" font-size="11.00" fill="#475569">session check</text>
</g>
<!-- dep -->
<g id="node3" class="node">
<title>dep</title>
<path fill="#ede9fe" stroke="#64748b" stroke-width="1.2" d="M465.92,-427.14C465.92,-427.14 210.5,-427.14 210.5,-427.14 204.5,-427.14 198.5,-421.14 198.5,-415.14 198.5,-415.14 198.5,-379.98 198.5,-379.98 198.5,-373.98 204.5,-367.98 210.5,-367.98 210.5,-367.98 465.92,-367.98 465.92,-367.98 471.92,-367.98 477.92,-373.98 477.92,-379.98 477.92,-379.98 477.92,-415.14 477.92,-415.14 477.92,-421.14 471.92,-427.14 465.92,-427.14"/>
<text xml:space="preserve" text-anchor="middle" x="338.21" y="-401.86" font-family="DejaVu Sans" font-size="16.00" fill="#0f172a">get_current_user() dependency</text>
<text xml:space="preserve" text-anchor="middle" x="338.21" y="-382.36" font-family="DejaVu Sans" font-size="16.00" fill="#0f172a">Read access_token cookie</text>
</g>
<!-- me&#45;&gt;dep -->
<g id="edge2" class="edge">
<title>me&#45;&gt;dep</title>
<path fill="none" stroke="#64748b" d="M338.21,-490.32C338.21,-474.02 338.21,-453.48 338.21,-435.97"/>
<polygon fill="#64748b" stroke="#64748b" points="340.66,-436.16 338.21,-429.16 335.76,-436.16 340.66,-436.16"/>
<text xml:space="preserve" text-anchor="middle" x="362.21" y="-455.19" font-family="DejaVu Sans" font-size="11.00" fill="#475569">Depends</text>
</g>
<!-- valid -->
<g id="node4" class="node">
<title>valid</title>
<path fill="#ede9fe" stroke="#64748b" stroke-width="1.2" d="M383.67,-304.48C383.67,-304.48 66.75,-304.48 66.75,-304.48 60.75,-304.48 54.75,-298.48 54.75,-292.48 54.75,-292.48 54.75,-257.32 54.75,-257.32 54.75,-251.32 60.75,-245.32 66.75,-245.32 66.75,-245.32 383.67,-245.32 383.67,-245.32 389.67,-245.32 395.67,-251.32 395.67,-257.32 395.67,-257.32 395.67,-292.48 395.67,-292.48 395.67,-298.48 389.67,-304.48 383.67,-304.48"/>
<text xml:space="preserve" text-anchor="middle" x="225.21" y="-279.2" font-family="DejaVu Sans" font-size="16.00" fill="#0f172a">AuthService.get_current_user()</text>
<text xml:space="preserve" text-anchor="middle" x="225.21" y="-259.7" font-family="DejaVu Sans" font-size="16.00" fill="#0f172a">decode_access_token() + UUID subject</text>
</g>
<!-- dep&#45;&gt;valid -->
<g id="edge3" class="edge">
<title>dep&#45;&gt;valid</title>
<path fill="none" stroke="#64748b" d="M311.14,-367.66C295.19,-350.62 274.89,-328.94 258.02,-310.94"/>
<polygon fill="#64748b" stroke="#64748b" points="260.05,-309.52 253.48,-306.09 256.48,-312.87 260.05,-309.52"/>
<text xml:space="preserve" text-anchor="middle" x="325.6" y="-332.53" font-family="DejaVu Sans" font-size="11.00" fill="#475569">cookie present</text>
</g>
<!-- fail -->
<g id="node14" class="node">
<title>fail</title>
<path fill="#fee2e2" stroke="#64748b" stroke-width="1.2" d="M560.17,-59.16C560.17,-59.16 306.25,-59.16 306.25,-59.16 300.25,-59.16 294.25,-53.16 294.25,-47.16 294.25,-47.16 294.25,-12 294.25,-12 294.25,-6 300.25,0 306.25,0 306.25,0 560.17,0 560.17,0 566.17,0 572.17,-6 572.17,-12 572.17,-12 572.17,-47.16 572.17,-47.16 572.17,-53.16 566.17,-59.16 560.17,-59.16"/>
<text xml:space="preserve" text-anchor="middle" x="433.21" y="-33.88" font-family="DejaVu Sans" font-size="16.00" fill="#0f172a">Invalid access / identity</text>
<text xml:space="preserve" text-anchor="middle" x="433.21" y="-14.38" font-family="DejaVu Sans" font-size="16.00" fill="#0f172a">401 → refresh or sign&#45;in screen</text>
</g>
<!-- dep&#45;&gt;fail -->
<g id="edge6" class="edge">
<title>dep&#45;&gt;fail</title>
<path fill="none" stroke="#64748b" d="M367.39,-367.77C382.62,-350.85 399.96,-328.17 409.21,-304.48 440.43,-224.49 439.63,-121.68 436.39,-67.61"/>
<polygon fill="#64748b" stroke="#64748b" points="438.85,-67.7 435.95,-60.88 433.96,-68.02 438.85,-67.7"/>
<text xml:space="preserve" text-anchor="middle" x="472.79" y="-209.87" font-family="DejaVu Sans" font-size="11.00" fill="#475569">missing cookie</text>
</g>
<!-- lookup -->
<g id="node5" class="node">
<title>lookup</title>
<path fill="#dcfce7" stroke="#64748b" stroke-width="1.2" d="M257.8,-181.82C257.8,-181.82 40.63,-181.82 40.63,-181.82 34.63,-181.82 28.63,-175.82 28.63,-169.82 28.63,-169.82 28.63,-134.66 28.63,-134.66 28.63,-128.66 34.63,-122.66 40.63,-122.66 40.63,-122.66 257.8,-122.66 257.8,-122.66 263.8,-122.66 269.8,-128.66 269.8,-134.66 269.8,-134.66 269.8,-169.82 269.8,-169.82 269.8,-175.82 263.8,-181.82 257.8,-181.82"/>
<text xml:space="preserve" text-anchor="middle" x="149.21" y="-156.54" font-family="DejaVu Sans" font-size="16.00" fill="#0f172a">UserRepository.get_by_id()</text>
<text xml:space="preserve" text-anchor="middle" x="149.21" y="-137.04" font-family="DejaVu Sans" font-size="16.00" fill="#0f172a">Return user or reject</text>
</g>
<!-- valid&#45;&gt;lookup -->
<g id="edge4" class="edge">
<title>valid&#45;&gt;lookup</title>
<path fill="none" stroke="#64748b" d="M207.01,-245C196.46,-228.26 183.09,-207.04 171.87,-189.22"/>
<polygon fill="#64748b" stroke="#64748b" points="174.14,-188.22 168.34,-183.6 169.99,-190.83 174.14,-188.22"/>
<text xml:space="preserve" text-anchor="middle" x="214.99" y="-209.87" font-family="DejaVu Sans" font-size="11.00" fill="#475569">valid JWT</text>
</g>
<!-- valid&#45;&gt;fail -->
<g id="edge7" class="edge">
<title>valid&#45;&gt;fail</title>
<path fill="none" stroke="#64748b" d="M247.14,-244.86C270.75,-213.96 309.78,-163.93 345.71,-122.66 362.6,-103.25 382.27,-82.41 398.68,-65.47"/>
<polygon fill="#64748b" stroke="#64748b" points="400.39,-67.23 403.51,-60.5 396.87,-63.81 400.39,-67.23"/>
<text xml:space="preserve" text-anchor="middle" x="380.96" y="-148.54" font-family="DejaVu Sans" font-size="11.00" fill="#475569">invalid token</text>
</g>
<!-- profile -->
<g id="node6" class="node">
<title>profile</title>
<path fill="#dbeafe" stroke="#64748b" stroke-width="1.2" d="M252.42,-59.16C252.42,-59.16 12,-59.16 12,-59.16 6,-59.16 0,-53.16 0,-47.16 0,-47.16 0,-12 0,-12 0,-6 6,0 12,0 12,0 252.42,0 252.42,0 258.42,0 264.42,-6 264.42,-12 264.42,-12 264.42,-47.16 264.42,-47.16 264.42,-53.16 258.42,-59.16 252.42,-59.16"/>
<text xml:space="preserve" text-anchor="middle" x="132.21" y="-33.88" font-family="DejaVu Sans" font-size="16.00" fill="#0f172a">Public user profile</text>
<text xml:space="preserve" text-anchor="middle" x="132.21" y="-14.38" font-family="DejaVu Sans" font-size="16.00" fill="#0f172a">App renders AudioWorkspace</text>
</g>
<!-- lookup&#45;&gt;profile -->
<g id="edge5" class="edge">
<title>lookup&#45;&gt;profile</title>
<path fill="none" stroke="#64748b" d="M137.39,-122.21C134.74,-114.37 132.31,-105.8 130.96,-97.66 129.37,-88.06 128.95,-77.58 129.11,-67.82"/>
<polygon fill="#64748b" stroke="#64748b" points="131.55,-68.06 129.33,-60.99 126.65,-67.9 131.55,-68.06"/>
<text xml:space="preserve" text-anchor="middle" x="166.59" y="-87.21" font-family="DejaVu Sans" font-size="11.00" fill="#475569">existing user</text>
</g>
<!-- lookup&#45;&gt;fail -->
<g id="edge8" class="edge">
<title>lookup&#45;&gt;fail</title>
<path fill="none" stroke="#64748b" d="M179.9,-122.13C195.27,-108.9 214.77,-94.04 234.46,-84.16 251.3,-75.71 269.63,-68.47 288.13,-62.3"/>
<polygon fill="#64748b" stroke="#64748b" points="288.72,-64.68 294.62,-60.19 287.21,-60.02 288.72,-64.68"/>
<text xml:space="preserve" text-anchor="middle" x="269.34" y="-87.21" font-family="DejaVu Sans" font-size="11.00" fill="#475569">missing user</text>
</g>
<!-- login -->
<g id="node7" class="node">
<title>login</title>
<path fill="#dbeafe" stroke="#64748b" stroke-width="1.2" d="M549.92,-1550.58C549.92,-1550.58 324.5,-1550.58 324.5,-1550.58 318.5,-1550.58 312.5,-1544.58 312.5,-1538.58 312.5,-1538.58 312.5,-1503.42 312.5,-1503.42 312.5,-1497.42 318.5,-1491.42 324.5,-1491.42 324.5,-1491.42 549.92,-1491.42 549.92,-1491.42 555.92,-1491.42 561.92,-1497.42 561.92,-1503.42 561.92,-1503.42 561.92,-1538.58 561.92,-1538.58 561.92,-1544.58 555.92,-1550.58 549.92,-1550.58"/>
<text xml:space="preserve" text-anchor="middle" x="437.21" y="-1525.3" font-family="DejaVu Sans" font-size="16.00" fill="#0f172a">Login + GoogleLoginButton</text>
<text xml:space="preserve" text-anchor="middle" x="437.21" y="-1505.8" font-family="DejaVu Sans" font-size="16.00" fill="#0f172a">Google supplies credential</text>
</g>
<!-- post -->
<g id="node8" class="node">
<title>post</title>
<path fill="#dbeafe" stroke="#64748b" stroke-width="1.2" d="M551.8,-1427.92C551.8,-1427.92 322.63,-1427.92 322.63,-1427.92 316.63,-1427.92 310.63,-1421.92 310.63,-1415.92 310.63,-1415.92 310.63,-1380.76 310.63,-1380.76 310.63,-1374.76 316.63,-1368.76 322.63,-1368.76 322.63,-1368.76 551.8,-1368.76 551.8,-1368.76 557.8,-1368.76 563.8,-1374.76 563.8,-1380.76 563.8,-1380.76 563.8,-1415.92 563.8,-1415.92 563.8,-1421.92 557.8,-1427.92 551.8,-1427.92"/>
<text xml:space="preserve" text-anchor="middle" x="437.21" y="-1402.64" font-family="DejaVu Sans" font-size="16.00" fill="#0f172a">handleCredentialResponse()</text>
<text xml:space="preserve" text-anchor="middle" x="437.21" y="-1383.14" font-family="DejaVu Sans" font-size="16.00" fill="#0f172a">POST /auth/google</text>
</g>
<!-- login&#45;&gt;post -->
<g id="edge9" class="edge">
<title>login&#45;&gt;post</title>
<path fill="none" stroke="#64748b" d="M437.21,-1491.1C437.21,-1474.8 437.21,-1454.26 437.21,-1436.75"/>
<polygon fill="#64748b" stroke="#64748b" points="439.66,-1436.94 437.21,-1429.94 434.76,-1436.94 439.66,-1436.94"/>
<text xml:space="preserve" text-anchor="middle" x="459.34" y="-1455.97" font-family="DejaVu Sans" font-size="11.00" fill="#475569">callback</text>
</g>
<!-- verify -->
<g id="node9" class="node">
<title>verify</title>
<path fill="#ede9fe" stroke="#64748b" stroke-width="1.2" d="M568.3,-1305.26C568.3,-1305.26 306.12,-1305.26 306.12,-1305.26 300.12,-1305.26 294.12,-1299.26 294.12,-1293.26 294.12,-1293.26 294.12,-1258.1 294.12,-1258.1 294.12,-1252.1 300.12,-1246.1 306.12,-1246.1 306.12,-1246.1 568.3,-1246.1 568.3,-1246.1 574.3,-1246.1 580.3,-1252.1 580.3,-1258.1 580.3,-1258.1 580.3,-1293.26 580.3,-1293.26 580.3,-1299.26 574.3,-1305.26 568.3,-1305.26"/>
<text xml:space="preserve" text-anchor="middle" x="437.21" y="-1279.98" font-family="DejaVu Sans" font-size="16.00" fill="#0f172a">AuthService.login_with_google()</text>
<text xml:space="preserve" text-anchor="middle" x="437.21" y="-1260.48" font-family="DejaVu Sans" font-size="16.00" fill="#0f172a">Verify Google token + audience</text>
</g>
<!-- post&#45;&gt;verify -->
<g id="edge10" class="edge">
<title>post&#45;&gt;verify</title>
<path fill="none" stroke="#64748b" d="M437.21,-1368.44C437.21,-1352.14 437.21,-1331.6 437.21,-1314.09"/>
<polygon fill="#64748b" stroke="#64748b" points="439.66,-1314.28 437.21,-1307.28 434.76,-1314.28 439.66,-1314.28"/>
<text xml:space="preserve" text-anchor="middle" x="464.59" y="-1333.31" font-family="DejaVu Sans" font-size="11.00" fill="#475569">credential</text>
</g>
<!-- find -->
<g id="node10" class="node">
<title>find</title>
<path fill="#dcfce7" stroke="#64748b" stroke-width="1.2" d="M482.8,-1182.6C482.8,-1182.6 193.62,-1182.6 193.62,-1182.6 187.62,-1182.6 181.63,-1176.6 181.63,-1170.6 181.63,-1170.6 181.63,-1135.44 181.63,-1135.44 181.63,-1129.44 187.63,-1123.44 193.63,-1123.44 193.63,-1123.44 482.8,-1123.44 482.8,-1123.44 488.8,-1123.44 494.8,-1129.44 494.8,-1135.44 494.8,-1135.44 494.8,-1170.6 494.8,-1170.6 494.8,-1176.6 488.8,-1182.6 482.8,-1182.6"/>
<text xml:space="preserve" text-anchor="middle" x="338.21" y="-1157.32" font-family="DejaVu Sans" font-size="16.00" fill="#0f172a">get_by_google_id()</text>
<text xml:space="preserve" text-anchor="middle" x="338.21" y="-1137.82" font-family="DejaVu Sans" font-size="16.00" fill="#0f172a">create() if new; user insert commits</text>
</g>
<!-- verify&#45;&gt;find -->
<g id="edge11" class="edge">
<title>verify&#45;&gt;find</title>
<path fill="none" stroke="#64748b" d="M413.5,-1245.78C399.64,-1228.89 382.04,-1207.44 367.34,-1189.53"/>
<polygon fill="#64748b" stroke="#64748b" points="369.37,-1188.13 363.03,-1184.27 365.58,-1191.24 369.37,-1188.13"/>
<text xml:space="preserve" text-anchor="middle" x="434.18" y="-1210.65" font-family="DejaVu Sans" font-size="11.00" fill="#475569">verified identity</text>
</g>
<!-- verify&#45;&gt;fail -->
<g id="edge12" class="edge">
<title>verify&#45;&gt;fail</title>
<path fill="none" stroke="#64748b" d="M480.34,-1245.71C507.02,-1224.02 536.21,-1191.68 536.21,-1154.02 536.21,-1154.02 536.21,-1154.02 536.21,-151.24 536.21,-116.2 510.77,-86.19 485.18,-64.86"/>
<polygon fill="#64748b" stroke="#64748b" points="486.85,-63.06 479.87,-60.58 483.78,-66.88 486.85,-63.06"/>
<text xml:space="preserve" text-anchor="middle" x="592.46" y="-639.18" font-family="DejaVu Sans" font-size="11.00" fill="#475569">invalid Google token</text>
</g>
<!-- tokens -->
<g id="node11" class="node">
<title>tokens</title>
<path fill="#ede9fe" stroke="#64748b" stroke-width="1.2" d="M461.05,-1059.94C461.05,-1059.94 215.38,-1059.94 215.38,-1059.94 209.38,-1059.94 203.38,-1053.94 203.38,-1047.94 203.38,-1047.94 203.38,-993.28 203.38,-993.28 203.38,-987.28 209.38,-981.28 215.38,-981.28 215.38,-981.28 461.05,-981.28 461.05,-981.28 467.05,-981.28 473.05,-987.28 473.05,-993.28 473.05,-993.28 473.05,-1047.94 473.05,-1047.94 473.05,-1053.94 467.05,-1059.94 461.05,-1059.94"/>
<text xml:space="preserve" text-anchor="middle" x="338.21" y="-1034.66" font-family="DejaVu Sans" font-size="16.00" fill="#0f172a">create_access_token()</text>
<text xml:space="preserve" text-anchor="middle" x="338.21" y="-1015.16" font-family="DejaVu Sans" font-size="16.00" fill="#0f172a">generate_refresh_token()</text>
<text xml:space="preserve" text-anchor="middle" x="338.21" y="-995.66" font-family="DejaVu Sans" font-size="16.00" fill="#0f172a">hash_refresh_token() + expiry</text>
</g>
<!-- find&#45;&gt;tokens -->
<g id="edge13" class="edge">
<title>find&#45;&gt;tokens</title>
<path fill="none" stroke="#64748b" d="M338.21,-1123.08C338.21,-1107.07 338.21,-1086.79 338.21,-1068.57"/>
<polygon fill="#64748b" stroke="#64748b" points="340.66,-1068.88 338.21,-1061.88 335.76,-1068.88 340.66,-1068.88"/>
<text xml:space="preserve" text-anchor="middle" x="365.96" y="-1087.99" font-family="DejaVu Sans" font-size="11.00" fill="#475569">user UUID</text>
</g>
<!-- session -->
<g id="node12" class="node">
<title>session</title>
<path fill="#dcfce7" stroke="#64748b" stroke-width="1.2" d="M475.67,-917.78C475.67,-917.78 200.75,-917.78 200.75,-917.78 194.75,-917.78 188.75,-911.78 188.75,-905.78 188.75,-905.78 188.75,-870.62 188.75,-870.62 188.75,-864.62 194.75,-858.62 200.75,-858.62 200.75,-858.62 475.67,-858.62 475.67,-858.62 481.67,-858.62 487.67,-864.62 487.67,-870.62 487.67,-870.62 487.67,-905.78 487.67,-905.78 487.67,-911.78 481.67,-917.78 475.67,-917.78"/>
<text xml:space="preserve" text-anchor="middle" x="338.21" y="-892.5" font-family="DejaVu Sans" font-size="16.00" fill="#0f172a">RefreshSessionRepository.create()</text>
<text xml:space="preserve" text-anchor="middle" x="338.21" y="-873" font-family="DejaVu Sans" font-size="16.00" fill="#0f172a">Flush hash → service commits</text>
</g>
<!-- tokens&#45;&gt;session -->
<g id="edge14" class="edge">
<title>tokens&#45;&gt;session</title>
<path fill="none" stroke="#64748b" d="M338.21,-980.84C338.21,-963.54 338.21,-943.27 338.21,-926.19"/>
<polygon fill="#64748b" stroke="#64748b" points="340.66,-926.6 338.21,-919.6 335.76,-926.6 340.66,-926.6"/>
<text xml:space="preserve" text-anchor="middle" x="382.09" y="-945.83" font-family="DejaVu Sans" font-size="11.00" fill="#475569">only token hash</text>
</g>
<!-- cookies -->
<g id="node13" class="node">
<title>cookies</title>
<path fill="#ede9fe" stroke="#64748b" stroke-width="1.2" d="M473.42,-795.12C473.42,-795.12 203,-795.12 203,-795.12 197,-795.12 191,-789.12 191,-783.12 191,-783.12 191,-747.96 191,-747.96 191,-741.96 197,-735.96 203,-735.96 203,-735.96 473.42,-735.96 473.42,-735.96 479.42,-735.96 485.42,-741.96 485.42,-747.96 485.42,-747.96 485.42,-783.12 485.42,-783.12 485.42,-789.12 479.42,-795.12 473.42,-795.12"/>
<text xml:space="preserve" text-anchor="middle" x="338.21" y="-769.84" font-family="DejaVu Sans" font-size="16.00" fill="#0f172a">set_auth_cookies()</text>
<text xml:space="preserve" text-anchor="middle" x="338.21" y="-750.34" font-family="DejaVu Sans" font-size="16.00" fill="#0f172a">Access path / · refresh path /auth</text>
</g>
<!-- session&#45;&gt;cookies -->
<g id="edge15" class="edge">
<title>session&#45;&gt;cookies</title>
<path fill="none" stroke="#64748b" d="M338.21,-858.3C338.21,-842 338.21,-821.46 338.21,-803.95"/>
<polygon fill="#64748b" stroke="#64748b" points="340.66,-804.14 338.21,-797.14 335.76,-804.14 340.66,-804.14"/>
<text xml:space="preserve" text-anchor="middle" x="373.84" y="-823.17" font-family="DejaVu Sans" font-size="11.00" fill="#475569">after commit</text>
</g>
<!-- cookies&#45;&gt;mount -->
<g id="edge16" class="edge">
<title>cookies&#45;&gt;mount</title>
<path fill="none" stroke="#64748b" d="M338.21,-735.64C338.21,-719.34 338.21,-698.8 338.21,-681.29"/>
<polygon fill="#64748b" stroke="#64748b" points="340.66,-681.48 338.21,-674.48 335.76,-681.48 340.66,-681.48"/>
<text xml:space="preserve" text-anchor="middle" x="415.84" y="-700.51" font-family="DejaVu Sans" font-size="11.00" fill="#475569">handleLogin() rechecks user</text>
</g>
</g>
</svg>
